<mxfile host="Electron" agent="Mozilla/5.0 (X11; Linux x86_64) AppleWebKit/537.36 (KHTML, like Gecko) draw.io/24.7.17 Chrome/128.0.6613.36 Electron/32.0.1 Safari/537.36" version="24.7.17">
  <diagram name="Page-1" id="RqzjEtAixJeaYvvLru9u">
    <mxGraphModel dx="1687" dy="372" grid="1" gridSize="10" guides="1" tooltips="1" connect="1" arrows="1" fold="1" page="1" pageScale="1" pageWidth="1169" pageHeight="827" math="0" shadow="0">
      <root>
        <mxCell id="0" />
        <mxCell id="1" parent="0" />
        <mxCell id="6IpMNKMcU5wAv-_g0r3Z-97" value="" style="group" vertex="1" connectable="0" parent="1">
          <mxGeometry x="160" y="100" width="820" height="279" as="geometry" />
        </mxCell>
        <mxCell id="6IpMNKMcU5wAv-_g0r3Z-1" value="C&lt;sub style=&quot;&quot;&gt;&lt;font style=&quot;font-size: 12px;&quot;&gt;M&lt;/font&gt;&lt;/sub&gt;(z)" style="rounded=0;whiteSpace=wrap;html=1;fontSize=16;" vertex="1" parent="6IpMNKMcU5wAv-_g0r3Z-97">
          <mxGeometry x="80" y="60" width="80" height="80" as="geometry" />
        </mxCell>
        <mxCell id="6IpMNKMcU5wAv-_g0r3Z-2" value="&lt;span style=&quot;font-size: 16px;&quot;&gt;C&lt;/span&gt;&lt;sub style=&quot;&quot;&gt;&lt;font style=&quot;font-size: 12px;&quot;&gt;M-1&lt;/font&gt;&lt;/sub&gt;&lt;span style=&quot;font-size: 16px;&quot;&gt;(z)&lt;/span&gt;" style="rounded=0;whiteSpace=wrap;html=1;" vertex="1" parent="6IpMNKMcU5wAv-_g0r3Z-97">
          <mxGeometry x="240" y="60" width="80" height="80" as="geometry" />
        </mxCell>
        <mxCell id="6IpMNKMcU5wAv-_g0r3Z-3" value="" style="ellipse;whiteSpace=wrap;html=1;" vertex="1" parent="6IpMNKMcU5wAv-_g0r3Z-97">
          <mxGeometry x="100" y="180" width="40" height="40" as="geometry" />
        </mxCell>
        <mxCell id="6IpMNKMcU5wAv-_g0r3Z-4" value="" style="ellipse;whiteSpace=wrap;html=1;" vertex="1" parent="6IpMNKMcU5wAv-_g0r3Z-97">
          <mxGeometry x="180" y="180" width="40" height="40" as="geometry" />
        </mxCell>
        <mxCell id="6IpMNKMcU5wAv-_g0r3Z-26" style="rounded=0;orthogonalLoop=1;jettySize=auto;html=1;exitX=1;exitY=0.5;exitDx=0;exitDy=0;entryX=0;entryY=0.5;entryDx=0;entryDy=0;" edge="1" parent="6IpMNKMcU5wAv-_g0r3Z-97" source="6IpMNKMcU5wAv-_g0r3Z-5" target="6IpMNKMcU5wAv-_g0r3Z-22">
          <mxGeometry relative="1" as="geometry" />
        </mxCell>
        <mxCell id="6IpMNKMcU5wAv-_g0r3Z-5" value="" style="ellipse;whiteSpace=wrap;html=1;" vertex="1" parent="6IpMNKMcU5wAv-_g0r3Z-97">
          <mxGeometry x="260" y="180" width="40" height="40" as="geometry" />
        </mxCell>
        <mxCell id="6IpMNKMcU5wAv-_g0r3Z-6" value="" style="endArrow=classic;html=1;rounded=0;exitX=0.5;exitY=1;exitDx=0;exitDy=0;entryX=0.5;entryY=0;entryDx=0;entryDy=0;" edge="1" parent="6IpMNKMcU5wAv-_g0r3Z-97" source="6IpMNKMcU5wAv-_g0r3Z-1" target="6IpMNKMcU5wAv-_g0r3Z-3">
          <mxGeometry width="50" height="50" relative="1" as="geometry">
            <mxPoint x="470" y="120" as="sourcePoint" />
            <mxPoint x="520" y="70" as="targetPoint" />
          </mxGeometry>
        </mxCell>
        <mxCell id="6IpMNKMcU5wAv-_g0r3Z-7" value="" style="endArrow=classic;html=1;rounded=0;exitX=1;exitY=0.5;exitDx=0;exitDy=0;entryX=0;entryY=0.5;entryDx=0;entryDy=0;" edge="1" parent="6IpMNKMcU5wAv-_g0r3Z-97" source="6IpMNKMcU5wAv-_g0r3Z-3" target="6IpMNKMcU5wAv-_g0r3Z-4">
          <mxGeometry width="50" height="50" relative="1" as="geometry">
            <mxPoint x="130" y="110" as="sourcePoint" />
            <mxPoint x="130" y="190" as="targetPoint" />
          </mxGeometry>
        </mxCell>
        <mxCell id="6IpMNKMcU5wAv-_g0r3Z-8" value="" style="endArrow=classic;html=1;rounded=0;exitX=1;exitY=0.5;exitDx=0;exitDy=0;entryX=0;entryY=0.5;entryDx=0;entryDy=0;" edge="1" parent="6IpMNKMcU5wAv-_g0r3Z-97" source="6IpMNKMcU5wAv-_g0r3Z-4" target="6IpMNKMcU5wAv-_g0r3Z-5">
          <mxGeometry width="50" height="50" relative="1" as="geometry">
            <mxPoint x="240" y="240" as="sourcePoint" />
            <mxPoint x="280" y="240" as="targetPoint" />
          </mxGeometry>
        </mxCell>
        <mxCell id="6IpMNKMcU5wAv-_g0r3Z-10" value="" style="endArrow=classic;html=1;rounded=0;exitX=0.5;exitY=1;exitDx=0;exitDy=0;entryX=0.5;entryY=0;entryDx=0;entryDy=0;" edge="1" parent="6IpMNKMcU5wAv-_g0r3Z-97" source="6IpMNKMcU5wAv-_g0r3Z-2" target="6IpMNKMcU5wAv-_g0r3Z-5">
          <mxGeometry width="50" height="50" relative="1" as="geometry">
            <mxPoint x="260" y="140" as="sourcePoint" />
            <mxPoint x="300" y="140" as="targetPoint" />
          </mxGeometry>
        </mxCell>
        <mxCell id="6IpMNKMcU5wAv-_g0r3Z-17" value="" style="group;rotation=45;" vertex="1" connectable="0" parent="6IpMNKMcU5wAv-_g0r3Z-97">
          <mxGeometry x="190" y="190" width="20" height="20" as="geometry" />
        </mxCell>
        <mxCell id="6IpMNKMcU5wAv-_g0r3Z-15" value="" style="endArrow=none;html=1;rounded=0;" edge="1" parent="6IpMNKMcU5wAv-_g0r3Z-17">
          <mxGeometry width="50" height="50" relative="1" as="geometry">
            <mxPoint x="3" y="3" as="sourcePoint" />
            <mxPoint x="17" y="17" as="targetPoint" />
          </mxGeometry>
        </mxCell>
        <mxCell id="6IpMNKMcU5wAv-_g0r3Z-16" value="" style="endArrow=none;html=1;rounded=0;" edge="1" parent="6IpMNKMcU5wAv-_g0r3Z-17">
          <mxGeometry width="50" height="50" relative="1" as="geometry">
            <mxPoint x="3" y="17" as="sourcePoint" />
            <mxPoint x="17" y="3" as="targetPoint" />
          </mxGeometry>
        </mxCell>
        <mxCell id="6IpMNKMcU5wAv-_g0r3Z-18" value="" style="group" vertex="1" connectable="0" parent="6IpMNKMcU5wAv-_g0r3Z-97">
          <mxGeometry x="110" y="190" width="20" height="20" as="geometry" />
        </mxCell>
        <mxCell id="6IpMNKMcU5wAv-_g0r3Z-13" value="" style="endArrow=none;html=1;rounded=0;" edge="1" parent="6IpMNKMcU5wAv-_g0r3Z-18">
          <mxGeometry width="50" height="50" relative="1" as="geometry">
            <mxPoint y="10" as="sourcePoint" />
            <mxPoint x="20" y="10" as="targetPoint" />
          </mxGeometry>
        </mxCell>
        <mxCell id="6IpMNKMcU5wAv-_g0r3Z-14" value="" style="endArrow=none;html=1;rounded=0;" edge="1" parent="6IpMNKMcU5wAv-_g0r3Z-18">
          <mxGeometry width="50" height="50" relative="1" as="geometry">
            <mxPoint x="10" y="20" as="sourcePoint" />
            <mxPoint x="10" as="targetPoint" />
          </mxGeometry>
        </mxCell>
        <mxCell id="6IpMNKMcU5wAv-_g0r3Z-19" value="" style="group" vertex="1" connectable="0" parent="6IpMNKMcU5wAv-_g0r3Z-97">
          <mxGeometry x="270" y="190" width="20" height="20" as="geometry" />
        </mxCell>
        <mxCell id="6IpMNKMcU5wAv-_g0r3Z-20" value="" style="endArrow=none;html=1;rounded=0;" edge="1" parent="6IpMNKMcU5wAv-_g0r3Z-19">
          <mxGeometry width="50" height="50" relative="1" as="geometry">
            <mxPoint y="10" as="sourcePoint" />
            <mxPoint x="20" y="10" as="targetPoint" />
          </mxGeometry>
        </mxCell>
        <mxCell id="6IpMNKMcU5wAv-_g0r3Z-21" value="" style="endArrow=none;html=1;rounded=0;" edge="1" parent="6IpMNKMcU5wAv-_g0r3Z-19">
          <mxGeometry width="50" height="50" relative="1" as="geometry">
            <mxPoint x="10" y="20" as="sourcePoint" />
            <mxPoint x="10" as="targetPoint" />
          </mxGeometry>
        </mxCell>
        <mxCell id="6IpMNKMcU5wAv-_g0r3Z-27" style="rounded=0;orthogonalLoop=1;jettySize=auto;html=1;exitX=1;exitY=0.5;exitDx=0;exitDy=0;endArrow=none;endFill=0;" edge="1" parent="6IpMNKMcU5wAv-_g0r3Z-97" source="6IpMNKMcU5wAv-_g0r3Z-22">
          <mxGeometry relative="1" as="geometry">
            <mxPoint x="400" y="200" as="targetPoint" />
          </mxGeometry>
        </mxCell>
        <mxCell id="6IpMNKMcU5wAv-_g0r3Z-22" value="" style="ellipse;whiteSpace=wrap;html=1;" vertex="1" parent="6IpMNKMcU5wAv-_g0r3Z-97">
          <mxGeometry x="340" y="180" width="40" height="40" as="geometry" />
        </mxCell>
        <mxCell id="6IpMNKMcU5wAv-_g0r3Z-23" value="" style="group;rotation=45;" vertex="1" connectable="0" parent="6IpMNKMcU5wAv-_g0r3Z-97">
          <mxGeometry x="350" y="190" width="20" height="20" as="geometry" />
        </mxCell>
        <mxCell id="6IpMNKMcU5wAv-_g0r3Z-24" value="" style="endArrow=none;html=1;rounded=0;" edge="1" parent="6IpMNKMcU5wAv-_g0r3Z-23">
          <mxGeometry width="50" height="50" relative="1" as="geometry">
            <mxPoint x="3" y="3" as="sourcePoint" />
            <mxPoint x="17" y="17" as="targetPoint" />
          </mxGeometry>
        </mxCell>
        <mxCell id="6IpMNKMcU5wAv-_g0r3Z-25" value="" style="endArrow=none;html=1;rounded=0;" edge="1" parent="6IpMNKMcU5wAv-_g0r3Z-23">
          <mxGeometry width="50" height="50" relative="1" as="geometry">
            <mxPoint x="3" y="17" as="sourcePoint" />
            <mxPoint x="17" y="3" as="targetPoint" />
          </mxGeometry>
        </mxCell>
        <mxCell id="6IpMNKMcU5wAv-_g0r3Z-46" style="edgeStyle=orthogonalEdgeStyle;rounded=0;orthogonalLoop=1;jettySize=auto;html=1;exitX=0.5;exitY=1;exitDx=0;exitDy=0;entryX=0.5;entryY=0;entryDx=0;entryDy=0;" edge="1" parent="6IpMNKMcU5wAv-_g0r3Z-97" source="6IpMNKMcU5wAv-_g0r3Z-29" target="6IpMNKMcU5wAv-_g0r3Z-31">
          <mxGeometry relative="1" as="geometry" />
        </mxCell>
        <mxCell id="6IpMNKMcU5wAv-_g0r3Z-29" value="&lt;span style=&quot;font-size: 16px;&quot;&gt;C&lt;/span&gt;&lt;sub style=&quot;&quot;&gt;&lt;font style=&quot;font-size: 12px;&quot;&gt;1&lt;/font&gt;&lt;/sub&gt;&lt;span style=&quot;font-size: 16px;&quot;&gt;(z)&lt;/span&gt;" style="rounded=0;whiteSpace=wrap;html=1;" vertex="1" parent="6IpMNKMcU5wAv-_g0r3Z-97">
          <mxGeometry x="520" y="60" width="80" height="80" as="geometry" />
        </mxCell>
        <mxCell id="6IpMNKMcU5wAv-_g0r3Z-47" style="edgeStyle=orthogonalEdgeStyle;rounded=0;orthogonalLoop=1;jettySize=auto;html=1;exitX=0.5;exitY=1;exitDx=0;exitDy=0;entryX=0.5;entryY=0;entryDx=0;entryDy=0;" edge="1" parent="6IpMNKMcU5wAv-_g0r3Z-97" source="6IpMNKMcU5wAv-_g0r3Z-30" target="6IpMNKMcU5wAv-_g0r3Z-34">
          <mxGeometry relative="1" as="geometry" />
        </mxCell>
        <mxCell id="6IpMNKMcU5wAv-_g0r3Z-30" value="&lt;span style=&quot;font-size: 16px;&quot;&gt;C&lt;/span&gt;&lt;sub style=&quot;&quot;&gt;&lt;font style=&quot;font-size: 12px;&quot;&gt;0&lt;/font&gt;&lt;/sub&gt;&lt;span style=&quot;font-size: 16px;&quot;&gt;(z)&lt;/span&gt;" style="rounded=0;whiteSpace=wrap;html=1;" vertex="1" parent="6IpMNKMcU5wAv-_g0r3Z-97">
          <mxGeometry x="680" y="60" width="80" height="80" as="geometry" />
        </mxCell>
        <mxCell id="6IpMNKMcU5wAv-_g0r3Z-31" value="" style="ellipse;whiteSpace=wrap;html=1;" vertex="1" parent="6IpMNKMcU5wAv-_g0r3Z-97">
          <mxGeometry x="540" y="180" width="40" height="40" as="geometry" />
        </mxCell>
        <mxCell id="6IpMNKMcU5wAv-_g0r3Z-32" value="" style="ellipse;whiteSpace=wrap;html=1;" vertex="1" parent="6IpMNKMcU5wAv-_g0r3Z-97">
          <mxGeometry x="620" y="180" width="40" height="40" as="geometry" />
        </mxCell>
        <mxCell id="6IpMNKMcU5wAv-_g0r3Z-33" style="edgeStyle=orthogonalEdgeStyle;rounded=0;orthogonalLoop=1;jettySize=auto;html=1;exitX=1;exitY=0.5;exitDx=0;exitDy=0;entryX=0;entryY=0.5;entryDx=0;entryDy=0;" edge="1" parent="6IpMNKMcU5wAv-_g0r3Z-97" source="6IpMNKMcU5wAv-_g0r3Z-34">
          <mxGeometry relative="1" as="geometry">
            <mxPoint x="780" y="200" as="targetPoint" />
          </mxGeometry>
        </mxCell>
        <mxCell id="6IpMNKMcU5wAv-_g0r3Z-34" value="" style="ellipse;whiteSpace=wrap;html=1;" vertex="1" parent="6IpMNKMcU5wAv-_g0r3Z-97">
          <mxGeometry x="700" y="180" width="40" height="40" as="geometry" />
        </mxCell>
        <mxCell id="6IpMNKMcU5wAv-_g0r3Z-35" value="" style="endArrow=classic;html=1;rounded=0;exitX=1;exitY=0.5;exitDx=0;exitDy=0;entryX=0;entryY=0.5;entryDx=0;entryDy=0;" edge="1" parent="6IpMNKMcU5wAv-_g0r3Z-97" source="6IpMNKMcU5wAv-_g0r3Z-31" target="6IpMNKMcU5wAv-_g0r3Z-32">
          <mxGeometry width="50" height="50" relative="1" as="geometry">
            <mxPoint x="570" y="110" as="sourcePoint" />
            <mxPoint x="570" y="190" as="targetPoint" />
            <Array as="points">
              <mxPoint x="600" y="200" />
            </Array>
          </mxGeometry>
        </mxCell>
        <mxCell id="6IpMNKMcU5wAv-_g0r3Z-36" value="" style="endArrow=classic;html=1;rounded=0;exitX=1;exitY=0.5;exitDx=0;exitDy=0;entryX=0;entryY=0.5;entryDx=0;entryDy=0;" edge="1" parent="6IpMNKMcU5wAv-_g0r3Z-97" source="6IpMNKMcU5wAv-_g0r3Z-32" target="6IpMNKMcU5wAv-_g0r3Z-34">
          <mxGeometry width="50" height="50" relative="1" as="geometry">
            <mxPoint x="680" y="240" as="sourcePoint" />
            <mxPoint x="720" y="240" as="targetPoint" />
          </mxGeometry>
        </mxCell>
        <mxCell id="6IpMNKMcU5wAv-_g0r3Z-37" value="" style="group;rotation=45;" vertex="1" connectable="0" parent="6IpMNKMcU5wAv-_g0r3Z-97">
          <mxGeometry x="630" y="190" width="20" height="20" as="geometry" />
        </mxCell>
        <mxCell id="6IpMNKMcU5wAv-_g0r3Z-38" value="" style="endArrow=none;html=1;rounded=0;" edge="1" parent="6IpMNKMcU5wAv-_g0r3Z-37">
          <mxGeometry width="50" height="50" relative="1" as="geometry">
            <mxPoint x="3" y="3" as="sourcePoint" />
            <mxPoint x="17" y="17" as="targetPoint" />
          </mxGeometry>
        </mxCell>
        <mxCell id="6IpMNKMcU5wAv-_g0r3Z-39" value="" style="endArrow=none;html=1;rounded=0;" edge="1" parent="6IpMNKMcU5wAv-_g0r3Z-37">
          <mxGeometry width="50" height="50" relative="1" as="geometry">
            <mxPoint x="3" y="17" as="sourcePoint" />
            <mxPoint x="17" y="3" as="targetPoint" />
          </mxGeometry>
        </mxCell>
        <mxCell id="6IpMNKMcU5wAv-_g0r3Z-40" value="" style="group" vertex="1" connectable="0" parent="6IpMNKMcU5wAv-_g0r3Z-97">
          <mxGeometry x="550" y="190" width="20" height="20" as="geometry" />
        </mxCell>
        <mxCell id="6IpMNKMcU5wAv-_g0r3Z-41" value="" style="endArrow=none;html=1;rounded=0;" edge="1" parent="6IpMNKMcU5wAv-_g0r3Z-40">
          <mxGeometry width="50" height="50" relative="1" as="geometry">
            <mxPoint y="10" as="sourcePoint" />
            <mxPoint x="20" y="10" as="targetPoint" />
          </mxGeometry>
        </mxCell>
        <mxCell id="6IpMNKMcU5wAv-_g0r3Z-42" value="" style="endArrow=none;html=1;rounded=0;" edge="1" parent="6IpMNKMcU5wAv-_g0r3Z-40">
          <mxGeometry width="50" height="50" relative="1" as="geometry">
            <mxPoint x="10" y="20" as="sourcePoint" />
            <mxPoint x="10" as="targetPoint" />
          </mxGeometry>
        </mxCell>
        <mxCell id="6IpMNKMcU5wAv-_g0r3Z-43" value="" style="group" vertex="1" connectable="0" parent="6IpMNKMcU5wAv-_g0r3Z-97">
          <mxGeometry x="710" y="190" width="20" height="20" as="geometry" />
        </mxCell>
        <mxCell id="6IpMNKMcU5wAv-_g0r3Z-44" value="" style="endArrow=none;html=1;rounded=0;" edge="1" parent="6IpMNKMcU5wAv-_g0r3Z-43">
          <mxGeometry width="50" height="50" relative="1" as="geometry">
            <mxPoint y="10" as="sourcePoint" />
            <mxPoint x="20" y="10" as="targetPoint" />
          </mxGeometry>
        </mxCell>
        <mxCell id="6IpMNKMcU5wAv-_g0r3Z-45" value="" style="endArrow=none;html=1;rounded=0;" edge="1" parent="6IpMNKMcU5wAv-_g0r3Z-43">
          <mxGeometry width="50" height="50" relative="1" as="geometry">
            <mxPoint x="10" y="20" as="sourcePoint" />
            <mxPoint x="10" as="targetPoint" />
          </mxGeometry>
        </mxCell>
        <mxCell id="6IpMNKMcU5wAv-_g0r3Z-72" style="edgeStyle=orthogonalEdgeStyle;rounded=0;orthogonalLoop=1;jettySize=auto;html=1;exitX=1;exitY=0.5;exitDx=0;exitDy=0;entryX=0;entryY=0.5;entryDx=0;entryDy=0;endArrow=none;endFill=0;" edge="1" parent="6IpMNKMcU5wAv-_g0r3Z-97" source="6IpMNKMcU5wAv-_g0r3Z-49" target="6IpMNKMcU5wAv-_g0r3Z-52">
          <mxGeometry relative="1" as="geometry" />
        </mxCell>
        <mxCell id="6IpMNKMcU5wAv-_g0r3Z-49" value="x[n]" style="text;html=1;align=center;verticalAlign=middle;whiteSpace=wrap;rounded=0;" vertex="1" parent="6IpMNKMcU5wAv-_g0r3Z-97">
          <mxGeometry width="40" height="40" as="geometry" />
        </mxCell>
        <mxCell id="6IpMNKMcU5wAv-_g0r3Z-50" value="" style="endArrow=classic;html=1;rounded=0;entryX=0.5;entryY=0;entryDx=0;entryDy=0;exitX=0.5;exitY=1;exitDx=0;exitDy=0;" edge="1" parent="6IpMNKMcU5wAv-_g0r3Z-97" source="6IpMNKMcU5wAv-_g0r3Z-55" target="6IpMNKMcU5wAv-_g0r3Z-29">
          <mxGeometry width="50" height="50" relative="1" as="geometry">
            <mxPoint x="560" y="30" as="sourcePoint" />
            <mxPoint x="400" y="70" as="targetPoint" />
          </mxGeometry>
        </mxCell>
        <mxCell id="6IpMNKMcU5wAv-_g0r3Z-71" style="edgeStyle=orthogonalEdgeStyle;rounded=0;orthogonalLoop=1;jettySize=auto;html=1;exitX=1;exitY=0.5;exitDx=0;exitDy=0;entryX=0;entryY=0.5;entryDx=0;entryDy=0;endArrow=none;endFill=0;" edge="1" parent="6IpMNKMcU5wAv-_g0r3Z-97" source="6IpMNKMcU5wAv-_g0r3Z-52" target="6IpMNKMcU5wAv-_g0r3Z-54">
          <mxGeometry relative="1" as="geometry" />
        </mxCell>
        <mxCell id="6IpMNKMcU5wAv-_g0r3Z-52" value="" style="ellipse;whiteSpace=wrap;html=1;aspect=fixed;fillColor=#000000;strokeColor=none;" vertex="1" parent="6IpMNKMcU5wAv-_g0r3Z-97">
          <mxGeometry x="115" y="15" width="10" height="10" as="geometry" />
        </mxCell>
        <mxCell id="6IpMNKMcU5wAv-_g0r3Z-54" value="" style="ellipse;whiteSpace=wrap;html=1;aspect=fixed;fillColor=#000000;strokeColor=none;" vertex="1" parent="6IpMNKMcU5wAv-_g0r3Z-97">
          <mxGeometry x="275" y="15" width="10" height="10" as="geometry" />
        </mxCell>
        <mxCell id="6IpMNKMcU5wAv-_g0r3Z-56" style="edgeStyle=orthogonalEdgeStyle;rounded=0;orthogonalLoop=1;jettySize=auto;html=1;exitX=1;exitY=0.5;exitDx=0;exitDy=0;entryX=0.5;entryY=0;entryDx=0;entryDy=0;" edge="1" parent="6IpMNKMcU5wAv-_g0r3Z-97" source="6IpMNKMcU5wAv-_g0r3Z-55" target="6IpMNKMcU5wAv-_g0r3Z-30">
          <mxGeometry relative="1" as="geometry" />
        </mxCell>
        <mxCell id="6IpMNKMcU5wAv-_g0r3Z-55" value="" style="ellipse;whiteSpace=wrap;html=1;aspect=fixed;fillColor=#000000;strokeColor=none;" vertex="1" parent="6IpMNKMcU5wAv-_g0r3Z-97">
          <mxGeometry x="555" y="15" width="10" height="10" as="geometry" />
        </mxCell>
        <mxCell id="6IpMNKMcU5wAv-_g0r3Z-57" value="" style="ellipse;whiteSpace=wrap;html=1;aspect=fixed;fillColor=#000000;strokeColor=none;" vertex="1" parent="6IpMNKMcU5wAv-_g0r3Z-97">
          <mxGeometry x="435" y="15" width="10" height="10" as="geometry" />
        </mxCell>
        <mxCell id="6IpMNKMcU5wAv-_g0r3Z-58" value="" style="ellipse;whiteSpace=wrap;html=1;aspect=fixed;fillColor=#000000;strokeColor=none;" vertex="1" parent="6IpMNKMcU5wAv-_g0r3Z-97">
          <mxGeometry x="455" y="15" width="10" height="10" as="geometry" />
        </mxCell>
        <mxCell id="6IpMNKMcU5wAv-_g0r3Z-59" value="" style="ellipse;whiteSpace=wrap;html=1;aspect=fixed;fillColor=#000000;strokeColor=none;" vertex="1" parent="6IpMNKMcU5wAv-_g0r3Z-97">
          <mxGeometry x="415" y="15" width="10" height="10" as="geometry" />
        </mxCell>
        <mxCell id="6IpMNKMcU5wAv-_g0r3Z-60" value="" style="ellipse;whiteSpace=wrap;html=1;aspect=fixed;fillColor=#000000;strokeColor=none;" vertex="1" parent="6IpMNKMcU5wAv-_g0r3Z-97">
          <mxGeometry x="435" y="95" width="10" height="10" as="geometry" />
        </mxCell>
        <mxCell id="6IpMNKMcU5wAv-_g0r3Z-61" value="" style="ellipse;whiteSpace=wrap;html=1;aspect=fixed;fillColor=#000000;strokeColor=none;" vertex="1" parent="6IpMNKMcU5wAv-_g0r3Z-97">
          <mxGeometry x="455" y="95" width="10" height="10" as="geometry" />
        </mxCell>
        <mxCell id="6IpMNKMcU5wAv-_g0r3Z-62" value="" style="ellipse;whiteSpace=wrap;html=1;aspect=fixed;fillColor=#000000;strokeColor=none;" vertex="1" parent="6IpMNKMcU5wAv-_g0r3Z-97">
          <mxGeometry x="415" y="95" width="10" height="10" as="geometry" />
        </mxCell>
        <mxCell id="6IpMNKMcU5wAv-_g0r3Z-63" value="" style="ellipse;whiteSpace=wrap;html=1;aspect=fixed;fillColor=#000000;strokeColor=none;" vertex="1" parent="6IpMNKMcU5wAv-_g0r3Z-97">
          <mxGeometry x="435" y="195" width="10" height="10" as="geometry" />
        </mxCell>
        <mxCell id="6IpMNKMcU5wAv-_g0r3Z-64" value="" style="ellipse;whiteSpace=wrap;html=1;aspect=fixed;fillColor=#000000;strokeColor=none;" vertex="1" parent="6IpMNKMcU5wAv-_g0r3Z-97">
          <mxGeometry x="455" y="195" width="10" height="10" as="geometry" />
        </mxCell>
        <mxCell id="6IpMNKMcU5wAv-_g0r3Z-65" value="" style="ellipse;whiteSpace=wrap;html=1;aspect=fixed;fillColor=#000000;strokeColor=none;" vertex="1" parent="6IpMNKMcU5wAv-_g0r3Z-97">
          <mxGeometry x="415" y="195" width="10" height="10" as="geometry" />
        </mxCell>
        <mxCell id="6IpMNKMcU5wAv-_g0r3Z-66" style="edgeStyle=orthogonalEdgeStyle;rounded=0;orthogonalLoop=1;jettySize=auto;html=1;entryX=0;entryY=0.5;entryDx=0;entryDy=0;" edge="1" parent="6IpMNKMcU5wAv-_g0r3Z-97" target="6IpMNKMcU5wAv-_g0r3Z-31">
          <mxGeometry relative="1" as="geometry">
            <mxPoint x="530" y="200.02999999999997" as="targetPoint" />
            <mxPoint x="520" y="200" as="sourcePoint" />
          </mxGeometry>
        </mxCell>
        <mxCell id="6IpMNKMcU5wAv-_g0r3Z-67" value="" style="endArrow=classic;html=1;rounded=0;entryX=0.5;entryY=0;entryDx=0;entryDy=0;exitX=0.5;exitY=1;exitDx=0;exitDy=0;" edge="1" parent="6IpMNKMcU5wAv-_g0r3Z-97" source="6IpMNKMcU5wAv-_g0r3Z-54" target="6IpMNKMcU5wAv-_g0r3Z-2">
          <mxGeometry width="50" height="50" relative="1" as="geometry">
            <mxPoint x="290" y="25" as="sourcePoint" />
            <mxPoint x="290" y="60" as="targetPoint" />
            <Array as="points">
              <mxPoint x="280" y="40" />
            </Array>
          </mxGeometry>
        </mxCell>
        <mxCell id="6IpMNKMcU5wAv-_g0r3Z-68" value="" style="endArrow=classic;html=1;rounded=0;entryX=0.5;entryY=0;entryDx=0;entryDy=0;exitX=0.5;exitY=1;exitDx=0;exitDy=0;" edge="1" parent="6IpMNKMcU5wAv-_g0r3Z-97" source="6IpMNKMcU5wAv-_g0r3Z-52" target="6IpMNKMcU5wAv-_g0r3Z-1">
          <mxGeometry width="50" height="50" relative="1" as="geometry">
            <mxPoint x="290" y="35" as="sourcePoint" />
            <mxPoint x="290" y="70" as="targetPoint" />
          </mxGeometry>
        </mxCell>
        <mxCell id="6IpMNKMcU5wAv-_g0r3Z-69" value="" style="endArrow=none;html=1;rounded=0;exitX=1;exitY=0.5;exitDx=0;exitDy=0;endFill=0;" edge="1" parent="6IpMNKMcU5wAv-_g0r3Z-97" source="6IpMNKMcU5wAv-_g0r3Z-54">
          <mxGeometry width="50" height="50" relative="1" as="geometry">
            <mxPoint x="290" y="35" as="sourcePoint" />
            <mxPoint x="400" y="20" as="targetPoint" />
            <Array as="points" />
          </mxGeometry>
        </mxCell>
        <mxCell id="6IpMNKMcU5wAv-_g0r3Z-70" value="" style="endArrow=none;html=1;rounded=0;endFill=0;" edge="1" parent="6IpMNKMcU5wAv-_g0r3Z-97">
          <mxGeometry width="50" height="50" relative="1" as="geometry">
            <mxPoint x="520" y="20" as="sourcePoint" />
            <mxPoint x="555" y="19.710000000000008" as="targetPoint" />
            <Array as="points" />
          </mxGeometry>
        </mxCell>
        <mxCell id="6IpMNKMcU5wAv-_g0r3Z-74" value="" style="endArrow=classic;html=1;rounded=0;exitX=1;exitY=0.5;exitDx=0;exitDy=0;entryX=0;entryY=0.5;entryDx=0;entryDy=0;" edge="1" parent="6IpMNKMcU5wAv-_g0r3Z-97" source="6IpMNKMcU5wAv-_g0r3Z-75" target="6IpMNKMcU5wAv-_g0r3Z-3">
          <mxGeometry width="50" height="50" relative="1" as="geometry">
            <mxPoint x="60" y="199.57999999999998" as="sourcePoint" />
            <mxPoint x="80" y="200" as="targetPoint" />
          </mxGeometry>
        </mxCell>
        <mxCell id="6IpMNKMcU5wAv-_g0r3Z-75" value="0" style="text;html=1;align=center;verticalAlign=middle;whiteSpace=wrap;rounded=0;" vertex="1" parent="6IpMNKMcU5wAv-_g0r3Z-97">
          <mxGeometry y="180" width="40" height="40" as="geometry" />
        </mxCell>
        <mxCell id="6IpMNKMcU5wAv-_g0r3Z-76" value="d" style="text;html=1;align=center;verticalAlign=middle;whiteSpace=wrap;rounded=0;" vertex="1" parent="6IpMNKMcU5wAv-_g0r3Z-97">
          <mxGeometry y="239" width="40" height="40" as="geometry" />
        </mxCell>
        <mxCell id="6IpMNKMcU5wAv-_g0r3Z-78" value="" style="endArrow=none;html=1;rounded=0;exitX=1;exitY=0.5;exitDx=0;exitDy=0;entryX=0;entryY=0.5;entryDx=0;entryDy=0;endFill=0;" edge="1" parent="6IpMNKMcU5wAv-_g0r3Z-97" source="6IpMNKMcU5wAv-_g0r3Z-76" target="6IpMNKMcU5wAv-_g0r3Z-80">
          <mxGeometry width="50" height="50" relative="1" as="geometry">
            <mxPoint x="50" y="240" as="sourcePoint" />
            <mxPoint x="110" y="239.57999999999998" as="targetPoint" />
          </mxGeometry>
        </mxCell>
        <mxCell id="6IpMNKMcU5wAv-_g0r3Z-88" style="edgeStyle=orthogonalEdgeStyle;rounded=0;orthogonalLoop=1;jettySize=auto;html=1;exitX=1;exitY=0.5;exitDx=0;exitDy=0;entryX=0;entryY=0.5;entryDx=0;entryDy=0;endArrow=none;endFill=0;" edge="1" parent="6IpMNKMcU5wAv-_g0r3Z-97" source="6IpMNKMcU5wAv-_g0r3Z-80" target="6IpMNKMcU5wAv-_g0r3Z-81">
          <mxGeometry relative="1" as="geometry" />
        </mxCell>
        <mxCell id="6IpMNKMcU5wAv-_g0r3Z-89" style="edgeStyle=orthogonalEdgeStyle;rounded=0;orthogonalLoop=1;jettySize=auto;html=1;exitX=0.5;exitY=0;exitDx=0;exitDy=0;entryX=0.5;entryY=1;entryDx=0;entryDy=0;" edge="1" parent="6IpMNKMcU5wAv-_g0r3Z-97" source="6IpMNKMcU5wAv-_g0r3Z-80" target="6IpMNKMcU5wAv-_g0r3Z-4">
          <mxGeometry relative="1" as="geometry" />
        </mxCell>
        <mxCell id="6IpMNKMcU5wAv-_g0r3Z-80" value="" style="ellipse;whiteSpace=wrap;html=1;aspect=fixed;fillColor=#000000;strokeColor=none;" vertex="1" parent="6IpMNKMcU5wAv-_g0r3Z-97">
          <mxGeometry x="195" y="255" width="10" height="10" as="geometry" />
        </mxCell>
        <mxCell id="6IpMNKMcU5wAv-_g0r3Z-86" style="edgeStyle=orthogonalEdgeStyle;rounded=0;orthogonalLoop=1;jettySize=auto;html=1;exitX=1;exitY=0.5;exitDx=0;exitDy=0;endArrow=none;endFill=0;" edge="1" parent="6IpMNKMcU5wAv-_g0r3Z-97" source="6IpMNKMcU5wAv-_g0r3Z-81">
          <mxGeometry relative="1" as="geometry">
            <mxPoint x="400" y="260" as="targetPoint" />
          </mxGeometry>
        </mxCell>
        <mxCell id="6IpMNKMcU5wAv-_g0r3Z-90" style="edgeStyle=orthogonalEdgeStyle;rounded=0;orthogonalLoop=1;jettySize=auto;html=1;exitX=0.5;exitY=0;exitDx=0;exitDy=0;entryX=0.5;entryY=1;entryDx=0;entryDy=0;" edge="1" parent="6IpMNKMcU5wAv-_g0r3Z-97" source="6IpMNKMcU5wAv-_g0r3Z-81" target="6IpMNKMcU5wAv-_g0r3Z-22">
          <mxGeometry relative="1" as="geometry" />
        </mxCell>
        <mxCell id="6IpMNKMcU5wAv-_g0r3Z-81" value="" style="ellipse;whiteSpace=wrap;html=1;aspect=fixed;fillColor=#000000;strokeColor=none;" vertex="1" parent="6IpMNKMcU5wAv-_g0r3Z-97">
          <mxGeometry x="355" y="255" width="10" height="10" as="geometry" />
        </mxCell>
        <mxCell id="6IpMNKMcU5wAv-_g0r3Z-91" style="edgeStyle=orthogonalEdgeStyle;rounded=0;orthogonalLoop=1;jettySize=auto;html=1;entryX=0.5;entryY=1;entryDx=0;entryDy=0;" edge="1" parent="6IpMNKMcU5wAv-_g0r3Z-97" target="6IpMNKMcU5wAv-_g0r3Z-32">
          <mxGeometry relative="1" as="geometry">
            <mxPoint x="520" y="260" as="sourcePoint" />
          </mxGeometry>
        </mxCell>
        <mxCell id="6IpMNKMcU5wAv-_g0r3Z-83" value="" style="ellipse;whiteSpace=wrap;html=1;aspect=fixed;fillColor=#000000;strokeColor=none;" vertex="1" parent="6IpMNKMcU5wAv-_g0r3Z-97">
          <mxGeometry x="435" y="255" width="10" height="10" as="geometry" />
        </mxCell>
        <mxCell id="6IpMNKMcU5wAv-_g0r3Z-84" value="" style="ellipse;whiteSpace=wrap;html=1;aspect=fixed;fillColor=#000000;strokeColor=none;" vertex="1" parent="6IpMNKMcU5wAv-_g0r3Z-97">
          <mxGeometry x="455" y="255" width="10" height="10" as="geometry" />
        </mxCell>
        <mxCell id="6IpMNKMcU5wAv-_g0r3Z-85" value="" style="ellipse;whiteSpace=wrap;html=1;aspect=fixed;fillColor=#000000;strokeColor=none;" vertex="1" parent="6IpMNKMcU5wAv-_g0r3Z-97">
          <mxGeometry x="415" y="255" width="10" height="10" as="geometry" />
        </mxCell>
        <mxCell id="6IpMNKMcU5wAv-_g0r3Z-92" value="&lt;font style=&quot;&quot;&gt;&lt;sub style=&quot;&quot;&gt;&lt;font style=&quot;font-size: 12px;&quot;&gt;Y&lt;/font&gt;&lt;font style=&quot;font-size: 8px;&quot;&gt;M&lt;/font&gt;&lt;/sub&gt;(z)&lt;/font&gt;" style="text;html=1;align=center;verticalAlign=middle;whiteSpace=wrap;rounded=0;" vertex="1" parent="6IpMNKMcU5wAv-_g0r3Z-97">
          <mxGeometry x="120" y="140" width="40" height="40" as="geometry" />
        </mxCell>
        <mxCell id="6IpMNKMcU5wAv-_g0r3Z-93" value="&lt;font style=&quot;&quot;&gt;&lt;sub style=&quot;&quot;&gt;&lt;font style=&quot;font-size: 12px;&quot;&gt;Y&lt;/font&gt;&lt;font style=&quot;font-size: 8px;&quot;&gt;M-1&lt;/font&gt;&lt;/sub&gt;(z)&lt;/font&gt;" style="text;html=1;align=center;verticalAlign=middle;whiteSpace=wrap;rounded=0;" vertex="1" parent="6IpMNKMcU5wAv-_g0r3Z-97">
          <mxGeometry x="280" y="140" width="40" height="40" as="geometry" />
        </mxCell>
        <mxCell id="6IpMNKMcU5wAv-_g0r3Z-94" value="&lt;font style=&quot;&quot;&gt;&lt;sub style=&quot;&quot;&gt;&lt;font style=&quot;font-size: 12px;&quot;&gt;Y&lt;/font&gt;&lt;font style=&quot;font-size: 8px;&quot;&gt;1&lt;/font&gt;&lt;/sub&gt;(z)&lt;/font&gt;" style="text;html=1;align=center;verticalAlign=middle;whiteSpace=wrap;rounded=0;" vertex="1" parent="6IpMNKMcU5wAv-_g0r3Z-97">
          <mxGeometry x="560" y="140" width="40" height="40" as="geometry" />
        </mxCell>
        <mxCell id="6IpMNKMcU5wAv-_g0r3Z-95" value="&lt;font style=&quot;&quot;&gt;&lt;sub style=&quot;&quot;&gt;&lt;font style=&quot;font-size: 12px;&quot;&gt;Y&lt;/font&gt;&lt;font style=&quot;font-size: 8px;&quot;&gt;0&lt;/font&gt;&lt;/sub&gt;(z)&lt;/font&gt;" style="text;html=1;align=center;verticalAlign=middle;whiteSpace=wrap;rounded=0;" vertex="1" parent="6IpMNKMcU5wAv-_g0r3Z-97">
          <mxGeometry x="720" y="140" width="40" height="40" as="geometry" />
        </mxCell>
        <mxCell id="6IpMNKMcU5wAv-_g0r3Z-96" value="y[n]" style="text;html=1;align=center;verticalAlign=middle;whiteSpace=wrap;rounded=0;" vertex="1" parent="6IpMNKMcU5wAv-_g0r3Z-97">
          <mxGeometry x="780" y="180" width="40" height="40" as="geometry" />
        </mxCell>
      </root>
    </mxGraphModel>
  </diagram>
</mxfile>
